# Blender v2.93.5 OBJ File: ''
# www.blender.org
mtllib crate.mtl
o Cube.001_Cube.004
v -0.647739 0.352261 1.000000
v -0.647739 1.647739 1.000000
v 0.647739 1.647739 1.000000
v 0.647739 0.352261 1.000000
v -0.647739 0.352261 0.852520
v -0.647739 1.647739 0.852519
v 0.647739 1.647739 0.852519
v 0.647739 0.352261 0.852520
v 0.432660 0.354810 0.975759
v -0.647722 1.434430 0.975759
v 0.432660 0.354810 0.855359
v -0.647722 1.434430 0.855359
v 0.645569 0.567577 0.975759
v -0.434813 1.647198 0.975759
v 0.645569 0.567577 0.855359
v -0.434813 1.647198 0.855359
v 1.000000 2.000000 -1.000000
v -0.647739 1.647739 -1.000000
v -0.647739 0.352261 -1.000000
v 0.647739 0.352261 -1.000000
v 0.647739 1.647739 -1.000000
v -0.647739 1.647739 -0.852520
v -0.647739 0.352261 -0.852520
v 0.647739 0.352261 -0.852520
v 0.647739 1.647739 -0.852520
v 0.432660 1.645190 -0.975759
v -0.647722 0.565570 -0.975759
v 0.432660 1.645191 -0.855359
v -0.647722 0.565570 -0.855359
v 0.645569 1.432423 -0.975759
v -0.434813 0.352802 -0.975759
v 0.645569 1.432423 -0.855359
v -0.434813 0.352802 -0.855359
v -1.000000 2.000000 1.000000
v -0.647739 2.000000 0.647739
v -0.647739 2.000000 -0.647739
v 0.647739 2.000000 -0.647739
v 0.647739 2.000000 0.647739
v -0.647739 1.852520 0.647739
v -0.647739 1.852520 -0.647739
v 0.647739 1.852520 -0.647739
v 0.647739 1.852520 0.647739
v 0.432660 1.975759 0.645190
v -0.647722 1.975759 -0.434430
v 0.432660 1.855359 0.645190
v -0.647722 1.855359 -0.434430
v 0.645569 1.975759 0.432423
v -0.434813 1.975759 -0.647198
v 0.645569 1.855360 0.432423
v -0.434813 1.855359 -0.647198
v -1.000000 0.000000 1.000000
v -1.000000 -0.000001 -1.000000
v 1.000000 -0.000001 -1.000000
v -0.647739 0.000000 0.647739
v -0.647739 -0.000000 -0.647739
v 0.647739 -0.000000 -0.647739
v 0.647739 0.000000 0.647739
v -0.647739 0.147480 0.647739
v -0.647739 0.147480 -0.647739
v 0.647739 0.147480 -0.647739
v 0.647739 0.147480 0.647739
v 0.432660 0.024241 0.645191
v -0.647722 0.024241 -0.434430
v 0.432660 0.144641 0.645191
v -0.647722 0.144641 -0.434430
v 0.645569 0.024241 0.432423
v -0.434813 0.024241 -0.647198
v 0.645569 0.144641 0.432423
v -0.434813 0.144640 -0.647198
v 1.000000 -0.000000 1.000000
v 1.000000 2.000000 1.000000
v 1.000000 0.352261 0.647739
v 1.000000 0.352261 -0.647739
v 1.000000 1.647739 -0.647739
v 1.000000 1.647739 0.647739
v 0.852520 0.352261 0.647739
v 0.852520 0.352261 -0.647739
v 0.852520 1.647739 -0.647739
v 0.852520 1.647739 0.647739
v 0.975759 1.432660 0.645191
v 0.975759 0.352278 -0.434430
v 0.855359 1.432660 0.645191
v 0.855359 0.352278 -0.434430
v 0.975759 1.645569 0.432423
v 0.975759 0.565187 -0.647198
v 0.855360 1.645569 0.432423
v 0.855359 0.565187 -0.647198
v -1.000000 2.000000 -1.000000
v -1.000000 1.647739 0.647739
v -1.000000 1.647739 -0.647739
v -1.000001 0.352261 -0.647739
v -1.000000 0.352262 0.647739
v -0.852520 1.647739 0.647739
v -0.852520 1.647739 -0.647739
v -0.852520 0.352261 -0.647739
v -0.852520 0.352262 0.647739
v -0.975759 0.567340 0.645191
v -0.975759 1.647722 -0.434430
v -0.855359 0.567340 0.645191
v -0.855359 1.647722 -0.434430
v -0.975759 0.354431 0.432423
v -0.975759 1.434813 -0.647198
v -0.855360 0.354431 0.432423
v -0.855359 1.434813 -0.647198
vt 0.176758 0.104492
vt 0.158203 0.804688
vt 0.062500 0.908203
vt 0.062500 0.000000
vt 0.176131 0.176131
vt 0.176131 0.823869
vt 0.000000 1.000000
vt 0.000000 0.000000
vt 0.823869 0.823869
vt 0.823869 0.176131
vt 1.000000 0.000000
vt 1.000000 1.000000
vt 0.429688 0.176758
vt 0.429688 0.824219
vt 0.253906 1.000000
vt 0.253906 0.000000
vt 0.580078 0.823242
vt 0.580078 0.175781
vt 0.771484 0.002930
vt 0.771484 0.996094
vt 1.000000 0.928711
vt -0.000000 0.928711
vt -0.000000 0.071289
vt 1.000000 0.071289
vt 0.433594 0.105469
vt 0.403320 0.800781
vt 0.309570 0.923828
vt 0.322266 0.018555
vt 0.848633 0.895508
vt 0.867188 0.195312
vt 0.962891 0.091797
vt 0.962891 1.000000
vt 0.604492 0.913086
vt 0.634766 0.217773
vt 0.728516 0.094727
vt 0.715820 1.000000
vt 0.717711 0.062910
vt 0.709764 0.436392
vt 0.674651 0.499826
vt 0.674651 0.019181
vt 0.842922 0.000174
vt 0.842922 0.480820
vt 0.799862 0.437090
vt 0.807809 0.063607
vt 0.176758 0.104492
vt 0.158203 0.804688
vt 0.062500 0.908203
vt 0.062500 0.000000
vt 0.176131 0.176131
vt 0.176131 0.823869
vt 0.000000 1.000000
vt 0.000000 0.000000
vt 0.823869 0.823869
vt 0.823869 0.176131
vt 1.000000 0.000000
vt 1.000000 1.000000
vt 0.429688 0.176758
vt 0.429688 0.824219
vt 0.253906 1.000000
vt 0.253906 0.000000
vt 0.580078 0.823242
vt 0.580078 0.175781
vt 0.771484 0.002930
vt 0.771484 0.996094
vt 1.000000 0.928711
vt -0.000000 0.928711
vt -0.000000 0.071289
vt 1.000000 0.071289
vt 0.433594 0.105469
vt 0.403320 0.800781
vt 0.309570 0.923828
vt 0.322266 0.018555
vt 0.848633 0.895508
vt 0.867188 0.195312
vt 0.962891 0.091797
vt 0.962891 1.000000
vt 0.604492 0.913086
vt 0.634766 0.217773
vt 0.728516 0.094727
vt 0.715820 1.000000
vt 0.043235 0.062909
vt 0.035288 0.436393
vt 0.000174 0.499826
vt 0.000175 0.019180
vt 0.168445 0.000174
vt 0.168445 0.480820
vt 0.125386 0.437091
vt 0.133332 0.063607
vt 0.176758 0.104492
vt 0.158203 0.804688
vt 0.062500 0.908203
vt 0.062500 0.000000
vt 0.176131 0.176131
vt 0.176131 0.823869
vt 0.000000 1.000000
vt 0.000000 0.000000
vt 0.823869 0.823869
vt 0.823869 0.176131
vt 1.000000 0.000000
vt 1.000000 1.000000
vt 0.429688 0.176758
vt 0.429688 0.824219
vt 0.253906 1.000000
vt 0.253906 0.000000
vt 0.580078 0.823242
vt 0.580078 0.175781
vt 0.771484 0.002930
vt 0.771484 0.996094
vt 1.000000 0.928711
vt -0.000000 0.928711
vt -0.000000 0.071289
vt 1.000000 0.071289
vt 0.433594 0.105469
vt 0.403320 0.800781
vt 0.309570 0.923828
vt 0.322266 0.018555
vt 0.848633 0.895508
vt 0.867188 0.195312
vt 0.962891 0.091797
vt 0.962891 1.000000
vt 0.604492 0.913086
vt 0.634766 0.217773
vt 0.728516 0.094727
vt 0.715820 1.000000
vt 0.211854 0.062910
vt 0.203907 0.436392
vt 0.168793 0.499826
vt 0.168794 0.019180
vt 0.337065 0.000174
vt 0.337065 0.480820
vt 0.294005 0.437090
vt 0.301951 0.063607
vt 0.176758 0.104492
vt 0.158203 0.804688
vt 0.062500 0.908203
vt 0.062500 0.000000
vt 0.176131 0.176131
vt 0.176131 0.823869
vt 0.823869 0.823869
vt 0.823869 0.176131
vt 0.429688 0.176758
vt 0.429688 0.824219
vt 0.580078 0.823242
vt 0.580078 0.175781
vt 1.000000 0.928711
vt -0.000000 0.928711
vt -0.000000 0.071289
vt 1.000000 0.071289
vt 0.433594 0.105469
vt 0.403320 0.800781
vt 0.309570 0.923828
vt 0.322266 0.018555
vt 0.848633 0.895508
vt 0.867188 0.195312
vt 0.962891 0.091797
vt 0.962891 1.000000
vt 0.604492 0.913086
vt 0.634766 0.217773
vt 0.728516 0.094727
vt 0.715820 1.000000
vt 0.380473 0.062910
vt 0.372526 0.436392
vt 0.337413 0.499826
vt 0.337413 0.019180
vt 0.505684 0.000174
vt 0.505684 0.480820
vt 0.462624 0.437090
vt 0.470571 0.063607
vt 0.176758 0.104492
vt 0.158203 0.804688
vt 0.062500 0.908203
vt 0.062500 0.000000
vt 0.176131 0.176131
vt 0.176131 0.823869
vt 0.000000 1.000000
vt 0.000000 0.000000
vt 0.823869 0.823869
vt 0.823869 0.176131
vt 0.429688 0.176758
vt 0.429688 0.824219
vt 0.253906 1.000000
vt 0.580078 0.823242
vt 0.580078 0.175781
vt 0.771484 0.996094
vt 1.000000 0.928711
vt -0.000000 0.928711
vt -0.000000 0.071289
vt 1.000000 0.071289
vt 0.433594 0.105469
vt 0.403320 0.800781
vt 0.309570 0.923828
vt 0.322266 0.018555
vt 0.848633 0.895508
vt 0.867188 0.195312
vt 0.962891 0.091797
vt 0.962891 1.000000
vt 0.604492 0.913086
vt 0.634766 0.217773
vt 0.728516 0.094727
vt 0.715820 1.000000
vt 0.631243 0.437090
vt 0.639190 0.063607
vt 0.674303 0.000174
vt 0.674303 0.480819
vt 0.506032 0.499825
vt 0.506032 0.019180
vt 0.549092 0.062910
vt 0.541145 0.436392
vt 0.176758 0.104492
vt 0.158203 0.804688
vt 0.062500 0.908203
vt 0.062500 0.000000
vt 0.176131 0.176131
vt 0.176131 0.823869
vt 0.823869 0.823869
vt 0.823869 0.176131
vt 1.000000 0.000000
vt 1.000000 1.000000
vt 0.429688 0.176758
vt 0.429688 0.824219
vt 0.253906 0.000000
vt 0.580078 0.823242
vt 0.580078 0.175781
vt 0.771484 0.002930
vt 1.000000 0.928711
vt -0.000000 0.928711
vt -0.000000 0.071289
vt 1.000000 0.071289
vt 0.433594 0.105469
vt 0.403320 0.800781
vt 0.309570 0.923828
vt 0.322266 0.018555
vt 0.848633 0.895508
vt 0.867188 0.195312
vt 0.962891 0.091797
vt 0.962891 1.000000
vt 0.604492 0.913086
vt 0.634766 0.217773
vt 0.728516 0.094727
vt 0.715820 1.000000
vt 0.125385 0.937090
vt 0.133332 0.563608
vt 0.168445 0.500174
vt 0.168445 0.980819
vt 0.000174 0.999826
vt 0.000174 0.519181
vt 0.043234 0.562910
vt 0.035287 0.936392
vn 0.0000 1.0000 -0.0000
vn 0.0000 0.0000 1.0000
vn 1.0000 0.0000 0.0000
vn 0.0000 -1.0000 0.0000
vn -1.0000 0.0000 0.0000
vn -0.7069 -0.7074 0.0000
vn 0.7069 0.7074 0.0000
vn -0.7069 0.7073 0.0000
vn 0.7069 -0.7073 0.0000
vn -0.0000 -0.0000 -1.0000
vn -0.7069 0.7074 0.0000
vn 0.7069 -0.7074 0.0000
vn -0.7069 -0.7073 0.0000
vn 0.7069 0.7073 0.0000
vn -0.7069 0.0000 0.7074
vn 0.7069 -0.0000 -0.7074
vn -0.7069 -0.0000 -0.7073
vn 0.7069 0.0000 0.7073
vn 0.0000 0.7069 -0.7074
vn 0.0000 -0.7069 0.7074
vn 0.0000 0.7069 0.7073
vn 0.0000 -0.7069 -0.7073
vn 0.0000 -0.7069 -0.7074
vn 0.0000 0.7069 0.7074
vn 0.0000 -0.7069 0.7073
vn 0.0000 0.7069 -0.7073
usemtl crate
s 1
f 1/1/1 4/2/1 8/3/1 5/4/1
f 1/5/2 2/6/2 34/7/2 51/8/2
f 3/9/2 4/10/2 70/11/2 71/12/2
f 4/13/2 1/14/2 51/15/2 70/16/2
f 2/17/2 3/18/2 71/19/2 34/20/2
f 8/21/2 7/22/2 6/23/2 5/24/2
f 2/25/3 1/26/3 5/27/3 6/28/3
f 3/29/4 2/30/4 6/31/4 7/32/4
f 4/33/5 3/34/5 7/35/5 8/36/5
f 9/37/6 10/38/6 12/39/6 11/40/6
f 15/41/7 16/42/7 14/43/7 13/44/7
f 13/44/2 14/43/2 10/38/2 9/37/2
f 10/38/8 14/43/8 16/42/8 12/39/8
f 11/40/9 15/41/9 13/44/9 9/37/9
f 18/45/4 21/46/4 25/47/4 22/48/4
f 18/49/10 19/50/10 52/51/10 88/52/10
f 20/53/10 21/54/10 17/55/10 53/56/10
f 21/57/10 18/58/10 88/59/10 17/60/10
f 19/61/10 20/62/10 53/63/10 52/64/10
f 25/65/10 24/66/10 23/67/10 22/68/10
f 19/69/3 18/70/3 22/71/3 23/72/3
f 20/73/1 19/74/1 23/75/1 24/76/1
f 21/77/5 20/78/5 24/79/5 25/80/5
f 26/81/11 27/82/11 29/83/11 28/84/11
f 32/85/12 33/86/12 31/87/12 30/88/12
f 30/88/10 31/87/10 27/82/10 26/81/10
f 27/82/13 31/87/13 33/86/13 29/83/13
f 28/84/14 32/85/14 30/88/14 26/81/14
f 35/89/10 38/90/10 42/91/10 39/92/10
f 35/93/1 36/94/1 88/95/1 34/96/1
f 37/97/1 38/98/1 71/99/1 17/100/1
f 38/101/1 35/102/1 34/103/1 71/104/1
f 36/105/1 37/106/1 17/107/1 88/108/1
f 42/109/1 41/110/1 40/111/1 39/112/1
f 36/113/3 35/114/3 39/115/3 40/116/3
f 37/117/2 36/118/2 40/119/2 41/120/2
f 38/121/5 37/122/5 41/123/5 42/124/5
f 43/125/15 44/126/15 46/127/15 45/128/15
f 49/129/16 50/130/16 48/131/16 47/132/16
f 47/132/1 48/131/1 44/126/1 43/125/1
f 44/126/17 48/131/17 50/130/17 46/127/17
f 45/128/18 49/129/18 47/132/18 43/125/18
f 54/133/2 57/134/2 61/135/2 58/136/2
f 54/137/1 55/138/1 52/51/1 51/8/1
f 56/139/1 57/140/1 70/11/1 53/56/1
f 57/141/1 54/142/1 51/15/1 70/16/1
f 55/143/1 56/144/1 53/63/1 52/64/1
f 61/145/1 60/146/1 59/147/1 58/148/1
f 55/149/5 54/150/5 58/151/5 59/152/5
f 56/153/10 55/154/10 59/155/10 60/156/10
f 57/157/3 56/158/3 60/159/3 61/160/3
f 62/161/16 63/162/16 65/163/16 64/164/16
f 68/165/15 69/166/15 67/167/15 66/168/15
f 66/168/1 67/167/1 63/162/1 62/161/1
f 63/162/18 67/167/18 69/166/18 65/163/18
f 64/164/17 68/165/17 66/168/17 62/161/17
f 72/169/2 75/170/2 79/171/2 76/172/2
f 72/173/5 73/174/5 53/175/5 70/176/5
f 74/177/5 75/178/5 71/99/5 17/100/5
f 75/179/5 72/180/5 70/181/5 71/104/5
f 73/182/5 74/183/5 17/107/5 53/184/5
f 79/185/5 78/186/5 77/187/5 76/188/5
f 73/189/4 72/190/4 76/191/4 77/192/4
f 74/193/10 73/194/10 77/195/10 78/196/10
f 75/197/1 74/198/1 78/199/1 79/200/1
f 80/201/19 81/202/19 83/203/19 82/204/19
f 86/205/20 87/206/20 85/207/20 84/208/20
f 84/208/5 85/207/5 81/202/5 80/201/5
f 81/202/21 85/207/21 87/206/21 83/203/21
f 82/204/22 86/205/22 84/208/22 80/201/22
f 89/209/2 92/210/2 96/211/2 93/212/2
f 89/213/3 90/214/3 88/95/3 34/96/3
f 91/215/3 92/216/3 51/217/3 52/218/3
f 92/219/3 89/220/3 34/103/3 51/221/3
f 90/222/3 91/223/3 52/224/3 88/108/3
f 96/225/3 95/226/3 94/227/3 93/228/3
f 90/229/1 89/230/1 93/231/1 94/232/1
f 91/233/10 90/234/10 94/235/10 95/236/10
f 92/237/4 91/238/4 95/239/4 96/240/4
f 97/241/23 98/242/23 100/243/23 99/244/23
f 103/245/24 104/246/24 102/247/24 101/248/24
f 101/248/3 102/247/3 98/242/3 97/241/3
f 98/242/25 102/247/25 104/246/25 100/243/25
f 99/244/26 103/245/26 101/248/26 97/241/26
